- 
http://www.Speed.Cd 
       
http://www.Speed.Cd      fast  and The Hottest Private Tracker on the net

(((--Submit for invite!!--)))

Please Seed back to make the speed Faster!!!

------------------nfo--------------------------
-[IMG]http://img38.imageshack.us/img38/4759/5c5588.jpg[/IMG]


[color=blue][size=5][b]The.Tree.of.Life.2011.BDRip.XVID.AC3.HQ.Hive-CM8[/b][/size][/color]


[b]Thx Hive

CM8 Doing It Right The First Time :D


Source: Bluray

Video: 720x384 @bitrate 1650 2pass
Audio: English DTS to AC3 5.1 @384
Sample: yes included
Subs: yes, english in srt /subs[/b]


[url]http://www.imdb.com/title/tt0478304/[/url]


General
Complete name                    : The.Tree.of.Life.2011.BDRip.XVID.AC3.HQ.Hive-CM8.avi
Format                           : AVI
Format/Info                      : Audio Video Interleave
File size                        : 1.98 GiB
Duration                         : 2h 18mn
Overall bit rate                 : 2 040 Kbps
Writing application              : Nandub v1.0rc2
Writing library                  : Nandub build 1853/release

Video
ID                               : 0
Format                           : MPEG-4 Visual
Format profile                   : Advanced Simple@L5
Format settings, BVOP            : 1
Format settings, QPel            : Yes
Format settings, GMC             : No warppoints
Format settings, Matrix          : Default (H.263)
Muxing mode                      : Packed bitstream
Codec ID                         : XVID
Codec ID/Hint                    : XviD
Duration                         : 2h 18mn
Bit rate                         : 1 647 Kbps
Width                            : 720 pixels
Height                           : 384 pixels
Display aspect ratio             : 1.850
Frame rate                       : 23.976 fps
Color space                      : YUV
Chroma subsampling               : 4:2:0
Bit depth                        : 8 bits
Scan type                        : Progressive
Compression mode                 : Lossy
Bits/(Pixel*Frame)               : 0.248
Stream size                      : 1.60 GiB (81%)
Writing library                  : XviD 1.2.1 (UTC 2008-12-04)

Audio
ID                               : 1
Format                           : AC-3
Format/Info                      : Audio Coding 3
Mode extension                   : CM (complete main)
Codec ID                         : 2000
Duration                         : 2h 18mn
Bit rate mode                    : Constant
Bit rate                         : 384 Kbps
Channel(s)                       : 6 channels
Channel positions                : Front: L C R, Side: L R, LFE
Sampling rate                    : 48.0 KHz
Bit depth                        : 16 bits
Compression mode                 : Lossy
Stream size                      : 382 MiB (19%)
Alignment                        : Split accross interleaves
Interleave, duration             : 42 ms (1.00 video frame)
Interleave, preload duration     : 500 ms


Plot:
The impressionistic story of a Texas family in the 1950s. The film follows the
life journey of the eldest son, Jack, through the innocence of childhood to
his disillusioned adult years.


Cast:
Brad Pitt         ...   Mr. O'Brien
Sean Penn         ...   Jack
Jessica Chastain  ...   Mrs. O'Brien
Hunter McCracken  ...   Young Jack


[img]http://img705.imageshack.us/img705/3386/33144000.png[/img]
[img]http://img98.imageshack.us/img98/5369/trtri.png[/img]
[img]http://img560.imageshack.us/img560/8645/trtrtr.png[/img]
[img]http://img834.imageshack.us/img834/1341/trtrtrtr.png[/img]
[img]http://img822.imageshack.us/img822/6236/trtrtrtrtr.png[/img]
[img]http://img64.imageshack.us/img64/9314/trtrtrtrtrtr.png[/img]
[img]http://img836.imageshack.us/img836/8793/trtrttrrtrtrtr.png[/img]



Greetz

ViSiON,SiC,SANTi,3LT0N,YanKeeS,MAGNET,THC,T0XiC,LKRG,FANTASIA-PLAY,FANTASIA-M,FLAWL3SS,
D2U,WBZ,BHRG,NOVA,Vik,Rapeseed,SAFC,goldadvance,MEMORY100,KaN1vE,Unevano,Pinnz,Wayne
Mr Hive,cedrict wink,and all P2P groups
Great Work Guys :D

LOOKING FOR ANYTHING YOU WANT TO LOOK AND SOUND BETTER

CM8@hushmail.com